<mxfile host="app.diagrams.net" agent="Mozilla/5.0 (Windows NT 10.0; Win64; x64; rv:133.0) Gecko/20100101 Firefox/133.0" version="25.0.1">
  <diagram name="Page-1" id="huvOvACLCwsIaHZvagzc">
    <mxGraphModel grid="1" page="1" gridSize="10" guides="1" tooltips="1" connect="1" arrows="1" fold="1" pageScale="1" pageWidth="827" pageHeight="1169" math="0" shadow="0">
      <root>
        <mxCell id="0" />
        <mxCell id="1" parent="0" />
        <mxCell id="epBoHAU3z_Rj7GAZAgCS-1" value="&amp;nbsp; Standort Wien" style="rounded=0;whiteSpace=wrap;html=1;verticalAlign=top;fontSize=19;movable=1;resizable=1;rotatable=1;deletable=1;editable=1;locked=0;connectable=1;align=left;" vertex="1" parent="1">
          <mxGeometry x="70" y="-170" width="670" height="600" as="geometry" />
        </mxCell>
        <mxCell id="epBoHAU3z_Rj7GAZAgCS-15" value="(mehrere) LANs" style="rounded=0;whiteSpace=wrap;html=1;strokeColor=#5DFF52;movable=1;resizable=1;rotatable=1;deletable=1;editable=1;locked=0;connectable=1;verticalAlign=top;" vertex="1" parent="1">
          <mxGeometry x="470" y="240" width="270" height="190" as="geometry" />
        </mxCell>
        <mxCell id="epBoHAU3z_Rj7GAZAgCS-14" value="SEC" style="rounded=0;whiteSpace=wrap;html=1;strokeColor=#FFCCCC;movable=1;resizable=1;rotatable=1;deletable=1;editable=1;locked=0;connectable=1;verticalAlign=top;" vertex="1" parent="1">
          <mxGeometry x="70" y="240" width="270" height="190" as="geometry" />
        </mxCell>
        <mxCell id="epBoHAU3z_Rj7GAZAgCS-11" style="rounded=0;orthogonalLoop=1;jettySize=auto;html=1;exitX=0.015;exitY=0.015;exitDx=0;exitDy=0;exitPerimeter=0;entryX=1;entryY=0.75;entryDx=0;entryDy=0;endArrow=none;endFill=0;movable=1;resizable=1;rotatable=1;deletable=1;editable=1;locked=0;connectable=1;" edge="1" parent="1" source="epBoHAU3z_Rj7GAZAgCS-2" target="epBoHAU3z_Rj7GAZAgCS-9">
          <mxGeometry relative="1" as="geometry" />
        </mxCell>
        <mxCell id="epBoHAU3z_Rj7GAZAgCS-2" value="" style="sketch=0;points=[[0.015,0.015,0],[0.985,0.015,0],[0.985,0.985,0],[0.015,0.985,0],[0.25,0,0],[0.5,0,0],[0.75,0,0],[1,0.25,0],[1,0.5,0],[1,0.75,0],[0.75,1,0],[0.5,1,0],[0.25,1,0],[0,0.75,0],[0,0.5,0],[0,0.25,0]];verticalLabelPosition=bottom;html=1;verticalAlign=top;aspect=fixed;align=center;pointerEvents=1;shape=mxgraph.cisco19.rect;prIcon=l2_switch;fillColor=#FAFAFA;strokeColor=#005073;movable=1;resizable=1;rotatable=1;deletable=1;editable=1;locked=0;connectable=1;" vertex="1" parent="1">
          <mxGeometry x="530" y="277.5" width="50" height="50" as="geometry" />
        </mxCell>
        <mxCell id="epBoHAU3z_Rj7GAZAgCS-10" style="rounded=0;orthogonalLoop=1;jettySize=auto;html=1;exitX=0.5;exitY=0;exitDx=0;exitDy=0;exitPerimeter=0;entryX=0.25;entryY=1;entryDx=0;entryDy=0;endArrow=none;endFill=0;movable=1;resizable=1;rotatable=1;deletable=1;editable=1;locked=0;connectable=1;" edge="1" parent="1" source="epBoHAU3z_Rj7GAZAgCS-3" target="epBoHAU3z_Rj7GAZAgCS-9">
          <mxGeometry relative="1" as="geometry" />
        </mxCell>
        <mxCell id="epBoHAU3z_Rj7GAZAgCS-3" value="" style="sketch=0;points=[[0.015,0.015,0],[0.985,0.015,0],[0.985,0.985,0],[0.015,0.985,0],[0.25,0,0],[0.5,0,0],[0.75,0,0],[1,0.25,0],[1,0.5,0],[1,0.75,0],[0.75,1,0],[0.5,1,0],[0.25,1,0],[0,0.75,0],[0,0.5,0],[0,0.25,0]];verticalLabelPosition=bottom;html=1;verticalAlign=top;aspect=fixed;align=center;pointerEvents=1;shape=mxgraph.cisco19.rect;prIcon=l2_switch;fillColor=#FAFAFA;strokeColor=#005073;movable=1;resizable=1;rotatable=1;deletable=1;editable=1;locked=0;connectable=1;" vertex="1" parent="1">
          <mxGeometry x="240" y="270" width="50" height="50" as="geometry" />
        </mxCell>
        <mxCell id="epBoHAU3z_Rj7GAZAgCS-16" style="rounded=0;orthogonalLoop=1;jettySize=auto;html=1;exitX=0;exitY=0;exitDx=0;exitDy=0;endArrow=none;endFill=0;movable=1;resizable=1;rotatable=1;deletable=1;editable=1;locked=0;connectable=1;" edge="1" parent="1" source="epBoHAU3z_Rj7GAZAgCS-9">
          <mxGeometry relative="1" as="geometry">
            <mxPoint x="40" y="170" as="targetPoint" />
          </mxGeometry>
        </mxCell>
        <mxCell id="epBoHAU3z_Rj7GAZAgCS-9" value="" style="shape=image;verticalLabelPosition=bottom;labelBackgroundColor=default;verticalAlign=top;aspect=fixed;imageAspect=0;image=data:image/svg+xml,PHN2ZyB4bWw6c3BhY2U9InByZXNlcnZlIiBzdHlsZT0iZW5hYmxlLWJhY2tncm91bmQ6bmV3IDAgMCAxODMgMTYwOyIgdmlld0JveD0iMCAwIDE4MyAxNjAiIHk9IjBweCIgeD0iMHB4IiB4bWxuczp4bGluaz0iaHR0cDovL3d3dy53My5vcmcvMTk5OS94bGluayIgeG1sbnM9Imh0dHA6Ly93d3cudzMub3JnLzIwMDAvc3ZnIiBpZD0ibG9nbyIgdmVyc2lvbj0iMS4xIj4mI3hhOzxzdHlsZSB0eXBlPSJ0ZXh0L2NzcyI+JiN4YTsJLnN0MHtmaWxsOm5vbmU7fSYjeGE7CS5zdDF7ZmlsbDojREEyOTFDO30mI3hhOzwvc3R5bGU+JiN4YTs8cmVjdCBoZWlnaHQ9IjE2MCIgd2lkdGg9IjE4MyIgY2xhc3M9InN0MCIvPiYjeGE7PHBhdGggZD0iTTEyOS43LDczLjF2MTMuOGgwaC0yMS41VjczLjFsMCwwSDEyOS43TDEyOS43LDczLjFMMTI5LjcsNzMuMXogTTgwLjgsMTA2LjZMODAuOCwxMDYuNmwyMS41LDB2MFY5Mi44SDgwLjgmI3hBOyYjOTtWMTA2LjZ6IE0xMjkuNyw2NC45YzAtNi40LTUuMi0xMS42LTExLjYtMTEuNmwtOS45LDB2MTMuOGgyMS41VjY0Ljl6IE04MC44LDUzLjN2MTMuOGwwLDBoMjEuNWwwLDBWNTMuM3YwTDgwLjgsNTMuM0w4MC44LDUzLjN6JiN4QTsmIzk7IE01My4zLDczLjFMNTMuMyw3My4xdjEzLjhsMCwwaDIxLjVWNzMuMWwwLDBINTMuM0w1My4zLDczLjF6IE0xMDguMiwxMDYuNmw5LjksMGM2LjQsMCwxMS42LTUuMiwxMS42LTExLjZ2LTIuMmgtMjEuNVYxMDYuNnomI3hBOyYjOTsgTTUzLjMsOTVjMCw2LjQsNS4yLDExLjYsMTEuNiwxMS42bDkuOSwwVjkyLjhINTMuM1Y5NXogTTUzLjMsNjQuOXYyLjJoMjEuNVY1My4zbC05LjksMEM1OC41LDUzLjMsNTMuMyw1OC41LDUzLjMsNjQuOXoiIGNsYXNzPSJzdDEiLz4mI3hhOzwvc3ZnPg==;clipPath=inset(29.01% 27% 29.77% 26%);movable=1;resizable=1;rotatable=1;deletable=1;editable=1;locked=0;connectable=1;" vertex="1" parent="1">
          <mxGeometry x="250" y="170" width="52.22" height="40" as="geometry" />
        </mxCell>
        <mxCell id="epBoHAU3z_Rj7GAZAgCS-12" value="DC1" style="sketch=0;points=[[0.015,0.015,0],[0.985,0.015,0],[0.985,0.985,0],[0.015,0.985,0],[0.25,0,0],[0.5,0,0],[0.75,0,0],[1,0.25,0],[1,0.5,0],[1,0.75,0],[0.75,1,0],[0.5,1,0],[0.25,1,0],[0,0.75,0],[0,0.5,0],[0,0.25,0]];verticalLabelPosition=bottom;html=1;verticalAlign=top;aspect=fixed;align=center;pointerEvents=1;shape=mxgraph.cisco19.server;fillColor=#005073;strokeColor=none;movable=1;resizable=1;rotatable=1;deletable=1;editable=1;locked=0;connectable=1;" vertex="1" parent="1">
          <mxGeometry x="110" y="270" width="27.500000000000004" height="50" as="geometry" />
        </mxCell>
        <mxCell id="epBoHAU3z_Rj7GAZAgCS-13" value="DC2" style="sketch=0;points=[[0.015,0.015,0],[0.985,0.015,0],[0.985,0.985,0],[0.015,0.985,0],[0.25,0,0],[0.5,0,0],[0.75,0,0],[1,0.25,0],[1,0.5,0],[1,0.75,0],[0.75,1,0],[0.5,1,0],[0.25,1,0],[0,0.75,0],[0,0.5,0],[0,0.25,0]];verticalLabelPosition=bottom;html=1;verticalAlign=top;aspect=fixed;align=center;pointerEvents=1;shape=mxgraph.cisco19.server;fillColor=#005073;strokeColor=none;movable=1;resizable=1;rotatable=1;deletable=1;editable=1;locked=0;connectable=1;" vertex="1" parent="1">
          <mxGeometry x="110" y="350" width="27.500000000000004" height="50" as="geometry" />
        </mxCell>
        <mxCell id="epBoHAU3z_Rj7GAZAgCS-17" style="edgeStyle=orthogonalEdgeStyle;rounded=0;orthogonalLoop=1;jettySize=auto;html=1;exitX=1;exitY=0.5;exitDx=0;exitDy=0;exitPerimeter=0;entryX=0;entryY=0.5;entryDx=0;entryDy=0;entryPerimeter=0;endArrow=none;endFill=0;movable=1;resizable=1;rotatable=1;deletable=1;editable=1;locked=0;connectable=1;" edge="1" parent="1" source="epBoHAU3z_Rj7GAZAgCS-12" target="epBoHAU3z_Rj7GAZAgCS-3">
          <mxGeometry relative="1" as="geometry" />
        </mxCell>
        <mxCell id="epBoHAU3z_Rj7GAZAgCS-18" style="edgeStyle=orthogonalEdgeStyle;rounded=0;orthogonalLoop=1;jettySize=auto;html=1;exitX=1;exitY=0.5;exitDx=0;exitDy=0;exitPerimeter=0;entryX=0.5;entryY=1;entryDx=0;entryDy=0;entryPerimeter=0;endArrow=none;endFill=0;movable=1;resizable=1;rotatable=1;deletable=1;editable=1;locked=0;connectable=1;" edge="1" parent="1" source="epBoHAU3z_Rj7GAZAgCS-13" target="epBoHAU3z_Rj7GAZAgCS-3">
          <mxGeometry relative="1" as="geometry" />
        </mxCell>
        <mxCell id="epBoHAU3z_Rj7GAZAgCS-20" value="" style="points=[[0.03,0.03,0],[0.5,0,0],[0.97,0.03,0],[1,0.4,0],[0.97,0.745,0],[0.5,1,0],[0.03,0.745,0],[0,0.4,0]];verticalLabelPosition=bottom;sketch=0;html=1;verticalAlign=top;aspect=fixed;align=center;pointerEvents=1;shape=mxgraph.cisco19.workstation;fillColor=#005073;strokeColor=none;movable=1;resizable=1;rotatable=1;deletable=1;editable=1;locked=0;connectable=1;" vertex="1" parent="1">
          <mxGeometry x="660" y="352.5" width="50" height="40" as="geometry" />
        </mxCell>
        <mxCell id="epBoHAU3z_Rj7GAZAgCS-21" value="" style="points=[[0.03,0.03,0],[0.5,0,0],[0.97,0.03,0],[1,0.4,0],[0.97,0.745,0],[0.5,1,0],[0.03,0.745,0],[0,0.4,0]];verticalLabelPosition=bottom;sketch=0;html=1;verticalAlign=top;aspect=fixed;align=center;pointerEvents=1;shape=mxgraph.cisco19.workstation;fillColor=#005073;strokeColor=none;movable=1;resizable=1;rotatable=1;deletable=1;editable=1;locked=0;connectable=1;" vertex="1" parent="1">
          <mxGeometry x="660" y="287.5" width="50" height="40" as="geometry" />
        </mxCell>
        <mxCell id="epBoHAU3z_Rj7GAZAgCS-22" style="rounded=0;orthogonalLoop=1;jettySize=auto;html=1;exitX=0;exitY=0.4;exitDx=0;exitDy=0;exitPerimeter=0;entryX=1;entryY=0.5;entryDx=0;entryDy=0;entryPerimeter=0;endArrow=none;endFill=0;movable=1;resizable=1;rotatable=1;deletable=1;editable=1;locked=0;connectable=1;" edge="1" parent="1" source="epBoHAU3z_Rj7GAZAgCS-21" target="epBoHAU3z_Rj7GAZAgCS-2">
          <mxGeometry relative="1" as="geometry" />
        </mxCell>
        <mxCell id="epBoHAU3z_Rj7GAZAgCS-23" style="edgeStyle=orthogonalEdgeStyle;rounded=0;orthogonalLoop=1;jettySize=auto;html=1;exitX=0;exitY=0.4;exitDx=0;exitDy=0;exitPerimeter=0;entryX=0.5;entryY=1;entryDx=0;entryDy=0;entryPerimeter=0;endArrow=none;endFill=0;movable=1;resizable=1;rotatable=1;deletable=1;editable=1;locked=0;connectable=1;" edge="1" parent="1" source="epBoHAU3z_Rj7GAZAgCS-20" target="epBoHAU3z_Rj7GAZAgCS-2">
          <mxGeometry relative="1" as="geometry" />
        </mxCell>
        <mxCell id="epBoHAU3z_Rj7GAZAgCS-25" value="DMZ" style="rounded=0;whiteSpace=wrap;html=1;strokeColor=#994C00;movable=1;resizable=1;rotatable=1;deletable=1;editable=1;locked=0;connectable=1;verticalAlign=top;" vertex="1" parent="1">
          <mxGeometry x="470" y="30" width="270" height="200" as="geometry" />
        </mxCell>
        <mxCell id="epBoHAU3z_Rj7GAZAgCS-28" style="rounded=0;orthogonalLoop=1;jettySize=auto;html=1;exitX=0;exitY=0.5;exitDx=0;exitDy=0;exitPerimeter=0;entryX=1;entryY=0.25;entryDx=0;entryDy=0;endArrow=none;endFill=0;" edge="1" parent="1" source="epBoHAU3z_Rj7GAZAgCS-26" target="epBoHAU3z_Rj7GAZAgCS-9">
          <mxGeometry relative="1" as="geometry" />
        </mxCell>
        <mxCell id="epBoHAU3z_Rj7GAZAgCS-26" value="" style="sketch=0;points=[[0.015,0.015,0],[0.985,0.015,0],[0.985,0.985,0],[0.015,0.985,0],[0.25,0,0],[0.5,0,0],[0.75,0,0],[1,0.25,0],[1,0.5,0],[1,0.75,0],[0.75,1,0],[0.5,1,0],[0.25,1,0],[0,0.75,0],[0,0.5,0],[0,0.25,0]];verticalLabelPosition=bottom;html=1;verticalAlign=top;aspect=fixed;align=center;pointerEvents=1;shape=mxgraph.cisco19.rect;prIcon=l2_switch;fillColor=#FAFAFA;strokeColor=#005073;movable=1;resizable=1;rotatable=1;deletable=1;editable=1;locked=0;connectable=1;" vertex="1" parent="1">
          <mxGeometry x="490" y="110" width="50" height="50" as="geometry" />
        </mxCell>
        <mxCell id="epBoHAU3z_Rj7GAZAgCS-29" value="VPN Server?" style="sketch=0;points=[[0.015,0.015,0],[0.985,0.015,0],[0.985,0.985,0],[0.015,0.985,0],[0.25,0,0],[0.5,0,0],[0.75,0,0],[1,0.25,0],[1,0.5,0],[1,0.75,0],[0.75,1,0],[0.5,1,0],[0.25,1,0],[0,0.75,0],[0,0.5,0],[0,0.25,0]];verticalLabelPosition=bottom;html=1;verticalAlign=top;aspect=fixed;align=center;pointerEvents=1;shape=mxgraph.cisco19.server;fillColor=#005073;strokeColor=none;movable=1;resizable=1;rotatable=1;deletable=1;editable=1;locked=0;connectable=1;" vertex="1" parent="1">
          <mxGeometry x="650" y="40" width="27.500000000000004" height="50" as="geometry" />
        </mxCell>
        <mxCell id="epBoHAU3z_Rj7GAZAgCS-30" style="rounded=0;orthogonalLoop=1;jettySize=auto;html=1;exitX=1;exitY=0.25;exitDx=0;exitDy=0;exitPerimeter=0;entryX=0;entryY=0.5;entryDx=0;entryDy=0;entryPerimeter=0;endArrow=none;endFill=0;" edge="1" parent="1" source="epBoHAU3z_Rj7GAZAgCS-26" target="epBoHAU3z_Rj7GAZAgCS-29">
          <mxGeometry relative="1" as="geometry" />
        </mxCell>
        <mxCell id="epBoHAU3z_Rj7GAZAgCS-32" value="DNS-Forwarder" style="sketch=0;points=[[0.015,0.015,0],[0.985,0.015,0],[0.985,0.985,0],[0.015,0.985,0],[0.25,0,0],[0.5,0,0],[0.75,0,0],[1,0.25,0],[1,0.5,0],[1,0.75,0],[0.75,1,0],[0.5,1,0],[0.25,1,0],[0,0.75,0],[0,0.5,0],[0,0.25,0]];verticalLabelPosition=bottom;html=1;verticalAlign=top;aspect=fixed;align=center;pointerEvents=1;shape=mxgraph.cisco19.server;fillColor=#005073;strokeColor=none;movable=1;resizable=1;rotatable=1;deletable=1;editable=1;locked=0;connectable=1;" vertex="1" parent="1">
          <mxGeometry x="677.5" y="120" width="27.500000000000004" height="50" as="geometry" />
        </mxCell>
        <mxCell id="epBoHAU3z_Rj7GAZAgCS-33" style="rounded=0;orthogonalLoop=1;jettySize=auto;html=1;exitX=1;exitY=0.5;exitDx=0;exitDy=0;exitPerimeter=0;entryX=0;entryY=0.5;entryDx=0;entryDy=0;entryPerimeter=0;endArrow=none;endFill=0;" edge="1" parent="1" source="epBoHAU3z_Rj7GAZAgCS-26" target="epBoHAU3z_Rj7GAZAgCS-32">
          <mxGeometry relative="1" as="geometry" />
        </mxCell>
        <mxCell id="epBoHAU3z_Rj7GAZAgCS-34" value="Bastion (wenn wir lustig sind und switches automatisch via Ansible aufsetzen. Mach ich in Infra eh, ist nicht schwer)" style="rounded=0;whiteSpace=wrap;html=1;strokeColor=#6E3D99;movable=1;resizable=1;rotatable=1;deletable=1;editable=1;locked=0;connectable=1;verticalAlign=top;" vertex="1" parent="1">
          <mxGeometry x="470" y="-170" width="270" height="190" as="geometry" />
        </mxCell>
        <mxCell id="epBoHAU3z_Rj7GAZAgCS-37" style="rounded=0;orthogonalLoop=1;jettySize=auto;html=1;exitX=0;exitY=0.5;exitDx=0;exitDy=0;exitPerimeter=0;entryX=0.75;entryY=0;entryDx=0;entryDy=0;endArrow=none;endFill=0;" edge="1" parent="1" source="epBoHAU3z_Rj7GAZAgCS-35" target="epBoHAU3z_Rj7GAZAgCS-9">
          <mxGeometry relative="1" as="geometry" />
        </mxCell>
        <mxCell id="epBoHAU3z_Rj7GAZAgCS-35" value="Bastion" style="sketch=0;points=[[0.015,0.015,0],[0.985,0.015,0],[0.985,0.985,0],[0.015,0.985,0],[0.25,0,0],[0.5,0,0],[0.75,0,0],[1,0.25,0],[1,0.5,0],[1,0.75,0],[0.75,1,0],[0.5,1,0],[0.25,1,0],[0,0.75,0],[0,0.5,0],[0,0.25,0]];verticalLabelPosition=bottom;html=1;verticalAlign=top;aspect=fixed;align=center;pointerEvents=1;shape=mxgraph.cisco19.server;fillColor=#005073;strokeColor=none;movable=1;resizable=1;rotatable=1;deletable=1;editable=1;locked=0;connectable=1;" vertex="1" parent="1">
          <mxGeometry x="600" y="-100" width="27.500000000000004" height="50" as="geometry" />
        </mxCell>
        <mxCell id="epBoHAU3z_Rj7GAZAgCS-39" value="IP Telefonie" style="rounded=0;whiteSpace=wrap;html=1;strokeColor=#97D077;movable=1;resizable=1;rotatable=1;deletable=1;editable=1;locked=0;connectable=1;verticalAlign=top;" vertex="1" parent="1">
          <mxGeometry x="250" y="-170" width="210" height="190" as="geometry" />
        </mxCell>
        <mxCell id="epBoHAU3z_Rj7GAZAgCS-40" style="rounded=0;orthogonalLoop=1;jettySize=auto;html=1;exitX=0.5;exitY=1;exitDx=0;exitDy=0;exitPerimeter=0;entryX=0.5;entryY=0;entryDx=0;entryDy=0;endArrow=none;endFill=0;" edge="1" parent="1" source="epBoHAU3z_Rj7GAZAgCS-38" target="epBoHAU3z_Rj7GAZAgCS-9">
          <mxGeometry relative="1" as="geometry" />
        </mxCell>
        <mxCell id="epBoHAU3z_Rj7GAZAgCS-38" value="" style="points=[[0.59,0,0],[0.87,0.015,0],[0.88,0.3,0],[0.99,0.99,0],[0.5,1,0],[0.01,0.99,0],[0.075,0.5,0],[0.17,0.115,0]];verticalLabelPosition=bottom;sketch=0;html=1;verticalAlign=top;aspect=fixed;align=center;pointerEvents=1;shape=mxgraph.cisco19.ip_phone;fillColor=#005073;strokeColor=none;" vertex="1" parent="1">
          <mxGeometry x="320" y="-110" width="57.49999999999999" height="50" as="geometry" />
        </mxCell>
        <mxCell id="epBoHAU3z_Rj7GAZAgCS-41" value="nginx webserver" style="sketch=0;points=[[0.015,0.015,0],[0.985,0.015,0],[0.985,0.985,0],[0.015,0.985,0],[0.25,0,0],[0.5,0,0],[0.75,0,0],[1,0.25,0],[1,0.5,0],[1,0.75,0],[0.75,1,0],[0.5,1,0],[0.25,1,0],[0,0.75,0],[0,0.5,0],[0,0.25,0]];verticalLabelPosition=bottom;html=1;verticalAlign=top;aspect=fixed;align=center;pointerEvents=1;shape=mxgraph.cisco19.server;fillColor=#005073;strokeColor=none;movable=1;resizable=1;rotatable=1;deletable=1;editable=1;locked=0;connectable=1;" vertex="1" parent="1">
          <mxGeometry x="610" y="150" width="27.500000000000004" height="50" as="geometry" />
        </mxCell>
        <mxCell id="epBoHAU3z_Rj7GAZAgCS-42" style="rounded=0;orthogonalLoop=1;jettySize=auto;html=1;exitX=0;exitY=0.5;exitDx=0;exitDy=0;exitPerimeter=0;entryX=1;entryY=0.75;entryDx=0;entryDy=0;entryPerimeter=0;endArrow=none;endFill=0;" edge="1" parent="1" source="epBoHAU3z_Rj7GAZAgCS-41" target="epBoHAU3z_Rj7GAZAgCS-26">
          <mxGeometry relative="1" as="geometry" />
        </mxCell>
      </root>
    </mxGraphModel>
  </diagram>
</mxfile>
